<?xml version="1.0" encoding="UTF-8" standalone="no"?>
<!-- Created with Inkscape (http://www.inkscape.org/) -->

<svg
   version="1.1"
   id="svg1"
   width="308"
   height="312"
   viewBox="0 0 308 312"
   sodipodi:docname="sean_logo.png"
   xmlns:inkscape="http://www.inkscape.org/namespaces/inkscape"
   xmlns:sodipodi="http://sodipodi.sourceforge.net/DTD/sodipodi-0.dtd"
   xmlns="http://www.w3.org/2000/svg"
   xmlns:svg="http://www.w3.org/2000/svg">
  <defs
     id="defs1" />
  <sodipodi:namedview
     id="namedview1"
     pagecolor="#ffffff"
     bordercolor="#000000"
     borderopacity="0.25"
     inkscape:showpageshadow="2"
     inkscape:pageopacity="0.0"
     inkscape:pagecheckerboard="0"
     inkscape:deskcolor="#d1d1d1"
     showgrid="false">
    <inkscape:page
       x="0"
       y="0"
       width="308"
       height="312"
       id="page2"
       margin="0"
       bleed="0" />
  </sodipodi:namedview>
  <g
     inkscape:groupmode="layer"
     inkscape:label="Image"
     id="g1">
    <path
       style="fill:#1f3346;stroke:none"
       d="m 106.20947,85.790535 c -4.69221,-4.77311 -13.270327,-1.96479 -19,0.0903 -12.85195,4.609586 -40.57945,19.575555 -39.71682,35.909725 0.68914,13.04915 19.5083,12.36388 28.71682,11.96065 29.96233,-1.31201 58.49706,-10.98776 88,-14.96065 -17.19112,17.96234 -34.57462,35.37209 -54,50.99924 -5.22749,4.20537 -14.036487,14.61305 -20.999997,15.09259 -3.527973,0.24295 -6.664913,-2.89015 -8.985333,-5.13504 -3.42229,-3.3109 -7.76126,-7.87224 -9.55248,-12.38117 -1.23603,-3.11139 0.98301,-6.32251 -0.2446,-9.42747 -2.60271,-6.58298 -12.42692,-1.37325 -16.21759,0.8665 -15.52581,9.17355 -32.28656,24.67116 -40.391206,40.98535 -4.6757418,9.412 -5.6732397,21.80975 7.391206,23.6983 27.31912,3.94913 46.7504,-23.5612 70.000003,-30.76544 7.74197,-2.39895 21.553497,1.06714 29.999997,1.06714 18.60347,0 39.21588,-2.3605 57,-8 v 1 c -45.02641,18.74603 -88.760947,46.0853 -130,71.94983 -15.0765,9.45578 -38.7511828,20.62747 -47.0000017,37.05017 6.622519,-1.84055 12.2877027,-7.8515 18.0000007,-11.66666 12.459601,-8.32162 25.152531,-16.18008 38.000001,-23.88427 51.46222,-30.86011 105.66653,-67.05979 163,-84.95061 18.21078,-5.68265 37.0303,-10.31986 54,-19.27933 7.27249,-3.83966 16.00601,-8.29513 17,-17.21913 -12.67789,-2.092 -26.09674,6.38811 -37,11.97223 -16.85338,8.6315 -34.69496,15.57616 -52,23.24614 -31.97359,14.1714 -69.84882,15.24795 -103.999997,13.78163 14.941687,-13.75259 31.568677,-25.63905 45.999997,-40.00076 9.92841,-9.88053 20.03821,-24.72567 32,-31.99384 8.35254,-5.07513 19.81113,-6.42718 29,-9.69752 19.99689,-7.116952 39.71715,-15.013079 58,-25.912035 14.47336,-8.62801 46.34656,-26.26865 40.56635,-47.395844 -6.11561,-22.353027 -39.39084,-5.927948 -50.56635,1.34491 -21.04211,13.693874 -40.81921,31.154484 -57.81558,49.615734 -8.02355,8.715086 -17.70883,25.121815 -29.18518,28.984575 -25.25904,8.5018 -52.7349,11.71436 -78.99924,15.47531 -8.63395,1.23635 -23.86632,2.99636 -30.5625,-3.97763 -5.39794,-5.62189 2.60691,-13.52678 6.52701,-17.34955 C 75.9837,94.392241 90.298283,91.751101 106.20947,85.790565 m 75,22.999995 c 4.07768,-8.75649 12.8347,-15.721709 19.34799,-22.760035 17.16677,-18.5506 36.78171,-36.84723 58.65201,-49.787785 7.86212,-4.651978 29.17426,-16.525391 35.97223,-4.344147 6.42956,11.521062 -11.58487,26.435652 -18.97223,32.432102 -27.02103,21.93342 -61.83853,35.049553 -95,44.459865 m 90,17 c -5.40353,4.00552 -16.716,17.76646 -23.98457,16.18286 -7.45063,-1.62327 -5.30425,-18.77649 -14.97608,-13.84952 -7.06581,3.59943 -9.4078,13.20021 -12.82408,19.6659 -0.98373,1.86184 -3.12027,6.72764 -5.99074,5.65509 -6.66644,-2.49094 2.54235,-19.16602 1.77547,-23.65433 l -7,7 h -1 c -7.39648,-6.42529 -18.23859,1.37282 -23.82947,7.09335 -5.30543,5.42847 -6.78267,13.077 -11.66975,18.42748 -7.59668,8.31698 -25.61135,11.25514 -34.50078,4.47917 5.30096,-1.97647 10.82773,-3.35281 16,-5.66589 3.51271,-1.57093 6.86534,-3.53757 9.99614,-5.77315 5.08542,-3.6313 13.66118,-17.08164 1.0031,-16.33257 -11.71485,0.69326 -21.87847,11.26912 -28.79167,19.81174 -2.77317,3.42679 -6.48772,8.12521 -4.60032,12.85107 2.4531,6.14229 14.15087,4.32348 19.39275,4.06867 8.32025,-0.40445 15.23744,-4.45081 23,-6.66049 11.75998,-3.34758 24.64328,-2.94954 31,-16.29938 h 1 c 1.96346,6.45514 7.98143,10.17386 13.6713,4.72145 6.05949,-5.80661 9.89813,-16.17201 13.3287,-23.72145 4.84027,3.9351 4.83345,12.05429 11.01543,14.39661 9.0896,3.444 31.09486,-12.80753 27.98457,-22.39661 m -72.01543,13.45294 c 5.93611,-0.866 5.45696,5.00035 3.1574,8.54706 -3.30113,5.09146 -11.46277,13.94189 -18.0324,14.45833 -5.11161,0.40182 -3.03036,-5.88321 -1.70602,-8.45833 3.01752,-5.86743 9.62405,-13.53214 16.58102,-14.54706 m 84.01543,3.54706 c -9.8504,13.65506 -38.79546,22.60687 -55,25 v -1 l 55,-24 m -118,3 c -4.17929,7.96738 -14.59077,12.68236 -23,15 3.4507,-8.02861 13.80438,-17.61557 23,-15 m -100,15 -16,21 15.89583,-8.65433 18.10417,15.65433 v 2 c -14.07418,9.49464 -28.70803,19.25835 -45,24.48996 -4.94646,1.58841 -15.60502,3.79312 -18.972221,-1.71835 -3.33665,-5.46146 1.044931,-13.21833 3.987651,-17.77161 7.10315,-10.99075 16.6516,-20.68279 27.02392,-28.62576 4.40975,-3.37693 9.21906,-7.44841 14.96065,-6.37424 z"
       id="path1" />
  </g>
</svg>
